<svg xmlns="http://www.w3.org/2000/svg" version="1.0" viewBox="0 0 512 512"><path d="M222 3.1c-34.5 4.7-73 30.1-94.3 62.2-13.9 20.9-24.4 51.8-27.8 81.6-1.4 12.7-.6 43.1 1.3 51.8 1.3 5.8 1.3 6.8-.8 15-4.6 17.7-2.2 32.5 5.9 37.3 2.9 1.7 3.5 2.7 4.5 8.2 3.4 18 20.4 36.4 36.9 39.8 4.4 1 5.6 1.7 6.5 3.8 11.4 28.3 26.4 46.9 51.8 64.2 6 4 6 4.1 6 8.9 0 11.9-4.2 25.3-10.6 33.6-5.7 7.5-24.1 16.5-48.9 24-14.1 4.2-32.1 11.3-42.8 16.7-16.9 8.6-31.1 25.2-41.1 47.7-2.6 5.9-2.8 6.7-1.5 9 1.6 2.8 3.8 3.6 7.3 2.7 1.7-.4 3.2-2.5 5.5-7.7 4.3-9.8 13-22.6 20.4-30.1 9.6-9.7 19.9-14.7 52.7-25.7 35.3-11.9 45.6-16.7 54.5-25.7 8.8-9 14.4-21.8 16.1-37l.6-6.2 5.8 2.4c8.3 3.3 20.7 6.4 26 6.4 5.3 0 17.5-3 25.8-6.3l5.7-2.3 1.8 10.5c4 23.9 15 37.3 38.7 47 5.2 2.1 19 7 30.5 10.9 25.5 8.5 35.7 12.8 44.6 18.8 10.3 6.8 22.3 22.1 29 37.1 1.7 3.7 3.6 7.1 4.2 7.5 2.6 1.7 6.6.8 8.3-1.8 1.6-2.4 1.6-2.8-.6-8.2-5.6-14-19.2-33.2-29.3-41.3-8-6.5-26.9-14.9-52.2-23.4-37.8-12.8-47-17.5-53.9-28-5.4-8.2-8.6-19.6-8.6-30.6v-4.7l9.7-6.8c12.3-8.8 26.5-22.7 33.2-32.7 4.5-6.7 11.3-19.8 14.9-28.9.9-2.1 2.1-2.8 6.5-3.8 16.5-3.4 33.5-21.8 36.9-39.8 1-5.5 1.6-6.5 4.5-8.2 8.1-4.8 10.5-19.6 5.9-37.3-2.1-8.4-2.2-9.1-.7-15.5 2.3-10 2.2-49.3-.2-62.2-10.2-55.2-32.7-90.3-73.6-115.1-13-7.9-23-12.2-36-15.6-12.3-3.2-27.5-3.5-37.1-.8-7.9 2.2-8.1 2.2-15.1.2-7.4-2-18.9-2.7-26.9-1.6zm17.9 12c3.6.5 6.8 1.2 7.2 1.4.3.3-.5 3.5-1.8 7.2-1.5 4.2-2.7 9.9-3 14.9-.6 9.3.8 15.2 6.4 27.2 8.5 18.2 10.2 27.3 6.7 34.9-1.7 3.5-23.4 28.5-49.7 57.3-21.3 23.3-60 61.8-74.2 73.9-10.8 9.1-12.4 10.1-15.5 9.9-4.5-.4-6-3.3-6-11.9 0-13.9 4.9-26 15.4-37.8 5.1-5.7 5.6-8.1 2.6-11.1-3.2-3.2-6-2.5-11.2 3.1l-4.7 5-.7-2.6c-1.1-4.5.3-40.5 2-49.5 9.7-51.7 31.4-84.8 70.3-107.2 13.6-7.8 27.4-12.9 39.8-14.7 8.4-1.2 9.2-1.2 16.4 0zm47-.1c26 3.3 58.9 22 78.2 44.5 17.1 19.9 29.8 51.2 34.3 84.3 1.6 11 2.2 38.5 1 42.9-.6 2.1-.9 2-5.3-2.7-5.1-5.5-7.9-6.2-11.1-3-3.1 3.1-2.5 5.3 3.4 12.2 2.9 3.5 6.5 8.2 8 10.6 5.4 8.7 8.5 28.9 5.3 35.2-.9 1.8-2.2 2.6-4.7 2.8-3.1.2-4.7-.8-15.5-9.9-23.9-20.4-86-85-115.2-120-1.1-1.4-1-2.4 1.2-7 4.8-10.3 2.8-24.4-5.6-41.2-8.4-16.6-8.9-25.2-2.2-41.9 1.6-4.1 4.4-5.4 13.7-6.8 2.8-.4 5.3-.8 5.6-.9.3 0 4.3.4 8.9.9zM269 134.5c6.9 7.7 19.3 21.5 27.7 30.6l15.2 16.6-7.2.6c-13 1.1-21.6 5.2-20.2 9.6 1 3.2 3.4 3.9 11 3 3.9-.4 11.7-.8 17.5-.8h10.5l17.3 17 17.2 17v7c0 20.5-6 51.1-13.7 69.4-8.7 20.7-24.5 39-45.9 53.1-9.8 6.5-19 10.7-30.3 14-10.5 3-13.8 3-24.5-.1-30.3-8.8-59.1-32.8-73-60.9-9.4-19.2-16.6-51.8-16.6-75.5v-6.9l17.3-17.1 17.2-17.1 10.5.1c5.8 0 13.7.4 17.5.8 7.9.9 9.1.7 10.6-2.1 2.6-4.8-6-9.3-20.1-10.5l-6.9-.6 16.2-17.6c8.9-9.7 21.4-23.6 27.7-30.8 6.3-7.3 11.8-13.1 12.1-13 .3.1 6.1 6.5 12.9 14.2zM142 241.8c0 2.6-.3 2.8-2.9 2.4l-3-.4 2.7-2.4c1.5-1.3 2.8-2.4 3-2.4.1 0 .2 1.3.2 2.8zm233.8 1.8c.2.1-1.1.4-2.8.6-2.8.4-3 .2-3-2.5v-3l2.8 2.4c1.5 1.3 2.8 2.5 3 2.5zm-243.1 10.6c.9 1 2.8 1.8 4.3 1.8 5.1 0 6.1 1.8 9.1 16.5 1.5 7.7 2.6 14.1 2.4 14.3-.2.2-2.7-.8-5.4-2.4-9.8-5.3-18.8-17.3-20.6-27.5-.6-3.3-.4-3.7 2.4-4.9 1.7-.6 3.6-1.9 4.3-2.8 1.1-1.3 1.3-1.2 1.6.9.2 1.3 1.1 3.2 1.9 4.1zm256.6-1.2c1.4 0-.1 6.7-2.8 12.8-3 6.6-11 15-17.6 18.6-2.7 1.6-5.2 2.6-5.4 2.4-.2-.2.9-6.6 2.4-14.3 3-14.6 4-16.5 9-16.5 3.2 0 6.1-2.7 6.1-5.6v-2.3l3.6 2.4c2 1.4 4.1 2.5 4.7 2.5z"/><path d="M216 71.1c-21.4 5.5-45.4 22.1-72.2 49.8-13.6 14-15.1 16.7-11 20.4 3.7 3.3 5.7 2.1 18.9-11.4 29.8-30.5 54.4-46.6 74.7-48.6 6.9-.6 9.6-2.4 9.6-6.3 0-6.2-6.4-7.5-20-3.9zM277.7 70.8c-2.6 2.8-1.9 7.3 1.3 8.8 1.4.7 5.7 1.7 9.5 2.3 19.1 2.8 39.8 16.3 67.9 44.3 17.5 17.4 19.6 18.7 22.9 15 3.7-4.1 2.4-6.4-12-21.3-30.4-31.2-58.2-48.6-80.8-50.5-6.2-.6-7.2-.4-8.8 1.4zM176 224.7c-4.4 2.3-5 6.6-1 7.1 1.4.1 6.6 2.3 11.5 4.8 14.5 7.2 26 8 35.3 2.2 3.3-2 4.4-5.9 2-7.4-.7-.4-6-.8-11.8-.9-9.4 0-11.3-.4-18.5-3.2-10.8-4.4-13.3-4.7-17.5-2.6zM327.5 224c-1.6.5-7 2.3-12 4-8.2 3-9.7 3.2-17.7 2.8-5.5-.4-9.1-.1-9.7.5-2.1 2.1-1.2 5.5 2.2 7.5 9.2 5.8 20.7 5 35.2-2.2 5-2.5 10.1-4.7 11.5-4.8 3.4-.4 3.9-4.2.8-6.2-3.2-2-6.7-2.6-10.3-1.6zM241 267c-2.8 2.8-2.5 6.1.8 9.3 7.8 7.5 20.6 7.5 28.5 0 3.2-3.2 3.5-6.5.7-9.3-2.6-2.6-3.6-2.5-8.5.5-2.2 1.3-5.1 2.4-6.5 2.4-1.4 0-4.3-1.1-6.5-2.4-4.9-3-5.9-3.1-8.5-.5zM223.9 303.8c-2.2 1.5-2.5 4.5-.6 6 2.2 1.8 12 4.2 17.4 4.2 3 0 7.6.7 10.4 1.6 4.5 1.5 5.3 1.5 9.8 0 2.8-.9 7.4-1.6 10.4-1.6 5.4 0 15.2-2.4 17.5-4.2 1.6-1.4 1.5-4.3-.2-5.7-1.2-1-6.4-1.2-32.6-1.2-1.9 0-9.5-.1-16.9-.2-9.6-.1-13.9.2-15.2 1.1zM245.8 325.2c-5.1 5.1.5 10.8 10.4 10.8 6.9 0 11.8-2.8 11.8-6.7 0-5.2-1.1-5.7-11.2-5.8-7.6-.1-9.5.2-11 1.7zM458.5 123.9c-5.3 2.4-8.3 5.5-10.6 10.5-6.3 13.8 3.6 28.9 19.1 29 13.3.1 23.6-13.1 20-25.8-3.4-12.4-17.1-19-28.5-13.7zm14.6 13c1.6 1.6 2.9 3.9 2.9 5.1 0 3.5-2.7 7.6-5.8 8.9-8.8 3.7-16.3-7.5-9.6-14.3 3.7-3.7 8.6-3.5 12.5.3zM41.4 154.4c-6 1.9-10.1 5.4-12.9 11-4 8-3 16.7 2.8 23.3 8.6 9.8 24.3 9.7 32.4-.2 9.8-11.9 4.5-29.7-10.1-34-5.9-1.8-6.8-1.8-12.2-.1zm10.1 12.2c8.9 4.2 5.7 17.4-4.2 17.4-4.2 0-9.3-4.6-9.3-8.4 0-4 2.2-7.8 5.5-9.2 3.9-1.7 4.1-1.7 8 .2zM32.5 233.7c-7.5 2.6-15.8 11.2-18 18.8-2.2 7.3-1.5 13.9 2 21.2 10.1 20.5 40.2 20.6 50.5 0 7.2-14.4 1.8-31.2-12.4-38.4-6.5-3.3-15.2-3.9-22.1-1.6zm15.2 11.8c7.2 3 10.5 8 10.5 15.7 0 9.3-6.9 15.8-17 15.8-6.4 0-11-3-14.1-9.3-3.1-6.2-2.3-12.2 2.2-17.4 5.4-6.1 11.5-7.7 18.4-4.8zM466.5 252.9c-4.6 1.2-6.8 2.6-10.8 7-11.5 12.7-3.3 33.5 13.7 34.9 6.8.5 11.8-1.1 16.7-5.5 10.4-9.4 8.7-26.6-3.4-33.7-4.8-2.8-11.5-3.9-16.2-2.7zm9.5 12.6c5.9 3 6.8 9.8 2.1 14.6-4.8 4.8-11.6 3.8-14.7-2.2-1.9-3.7-1.1-7.9 1.9-10.6 3.9-3.6 6.5-4 10.7-1.8zM397.5 334.3c-9 3-15.3 8.3-19.6 16.7-3.3 6.3-3.4 19.3-.2 26.2 8.7 19.1 34.9 23.8 49.7 9 6.6-6.5 9.1-12.5 9.1-21.7 0-9.3-2.1-14.8-8-21.3-7.3-8.1-21.2-12.1-31-8.9zm15.3 12.2c12.6 5.3 16.1 20.8 6.7 30.6-5.6 6-15.1 7.7-22.3 4-4.6-2.3-6.7-4.6-8.7-9.4-4.1-9.9 0-20.2 10-24.8 4.9-2.3 9.4-2.4 14.3-.4zM97.8 364.9c-7.6 2.5-12.8 9.6-12.8 17.6 0 16 18 23.7 30 12.9 11.7-10.6 5-29.4-10.9-31-2-.2-4.8.1-6.3.5zM107 378c2.8 2.8 2.5 6.4-.7 8.9-4.3 3.4-9.3.7-9.3-5 0-3 3.1-5.9 6.2-5.9 1 0 2.7.9 3.8 2z"/></svg>