<svg xmlns="http://www.w3.org/2000/svg" version="1.0" viewBox="0 0 512 512"><path d="M287 73.1c-35.8 4.6-94.6 26.1-162.5 59.4-54.5 26.7-80.9 45.6-90 64-5.4 11-5.2 21.4.5 33.1 7.7 15.8 26.4 23.9 43.6 18.9 16.9-4.9 46.4-17.3 91.6-38.6 71-33.5 105.5-46 142.3-51.6 13.2-2 40.1-2.2 49.3-.4 24.9 4.9 54.3 21.2 89.6 49.8 21.8 17.6 23.1 18.5 26.1 18.5 3.9.1 6.5-2.9 6.5-7.3 0-3.1-1.9-6.4-12.1-21-21.9-31.1-38-50.9-60.4-73.8-16.8-17.2-26.3-25.4-38-33C358.4 81.2 345 76 328 73.5c-10.2-1.6-30.4-1.8-41-.4zM219 291.7c-43.3 2.5-85 14.3-104.9 29.6-5.9 4.6-7.3 7-5.9 10.6 2.5 6.7 7.9 6.7 17.6 0 17.5-12.1 47.2-20.4 86.2-24 16-1.4 54.8-1.4 71 .1 38.4 3.5 72.6 11.9 91.7 22.6 7.2 4 8.1 4.1 11.7 1.3 2-1.6 2.6-2.9 2.6-5.9 0-4.5-2.3-6.7-12.9-12-24.4-12.2-54.7-18.6-103.1-22-13.4-.9-41-1.1-54-.3zM401.3 365.1c-43.6 20.7-101.6 31.3-163.3 29.5-45.3-1.2-83.5-7.5-132.4-21.8l-13.8-4-2.7 1.9c-1.8 1.4-2.7 3.1-2.9 5.7-.4 4.7 1.6 7.2 7.2 8.8 5.7 1.6 6.3 2.2 7.1 7.3 1.7 11.7 16.3 31.5 23.2 31.5 4 0 7.1-2.7 7.9-6.6.5-2.8 0-3.7-4-7.8-5.2-5.3-10-12-11.1-15.5-.7-2.2-.5-2.3 1.6-1.8 1.3.4 4.7 1.2 7.6 1.8 3.9.9 5.3 1.7 5.7 3.3.8 3.2 7.9 13.9 12.8 19.2 5.5 6 16.6 14.4 18.9 14.4 5.6 0 9.8-5.5 7.9-10.4-.5-1.3-3.4-4.1-6.4-6.1-5.4-3.5-13.6-11.8-13.6-13.6 0-.5.1-.9.3-.9 1.1 0 19.9 3.9 20 4.2 3.9 6.9 11.5 16.3 17.6 21.4 10.5 8.8 13.1 10.1 16.9 8.5 3.8-1.6 5.9-6.2 4.4-9.6-.6-1.3-3.5-4.1-6.4-6.3-2.9-2.2-6.9-5.7-8.8-7.7l-3.5-3.7 7 .6c13.9 1.3 13.7 1.2 17 6.9 3.5 6.1 17.5 20.4 22.6 23.1 3.2 1.7 3.9 1.7 6.4.5 7.4-3.6 6.8-10-1.5-15.9-2.8-1.9-6.6-5.4-8.5-7.8l-3.6-4.2h17.8l4.7 5.9c8.9 11.1 26.4 23.4 32.5 22.9 4.8-.4 7.8-4.5 6.5-9-.8-2.6-2.2-4-7.4-6.8-3.5-1.9-8.6-5.6-11.4-8.1l-5.1-4.7 9.8-.7 9.7-.7 2.2 2.8c10.7 13.8 28.9 27.4 36.7 27.4 2 0 3.6-.8 5-2.6 4.2-5.3 2.6-8.7-6.5-14-7.1-4.1-18.9-14.2-17.9-15.3.4-.3 3.6-1.1 7.3-1.6l6.7-1 4 5c2.3 2.7 7.5 7.6 11.6 10.8 7.4 5.7 27.9 16.7 31.3 16.7 2.4 0 7.6-5.4 7.6-7.8 0-3.5-3.7-6.8-10.9-9.6-3.8-1.5-9.6-4.4-12.8-6.5-6.1-4-13.8-11-12.9-11.8.2-.2 3.9-1.3 8.1-2.4l7.6-2 5.2 4.7c11.9 10.8 42.1 27.4 49.9 27.4 8.6 0 10.2-11.1 2.1-14.7-19.2-8.3-39.3-19.7-39.3-22.2 0-.4 2.7-1.6 6-2.6l6-1.8 5.3 3.6c12 7.9 25.8 13.5 41.6 16.7 13.7 2.8 17.4 2.7 20-.6 3.5-4.5 2.4-9.3-2.6-11.2-1.5-.6-6.4-1.6-10.8-2.3-4.4-.6-11.6-2.2-16-3.6-8.6-2.7-19.5-7.8-19.5-9.1 0-.5 2.4-1.8 5.3-3l5.3-2.2 6.4 2.5c9.8 3.8 20.2 5.6 33 5.6 11.9 0 16.4-.9 18.6-3.9 2-2.5 1.7-6.9-.6-9.2-2.3-2.3-1.7-2.2-17.2-2-13 .2-21.2-1.4-31.7-6.1-3.5-1.6-7.3-2.9-8.5-2.8-1.1 0-6.7 2.3-12.3 5z"/></svg>