<svg xmlns="http://www.w3.org/2000/svg" version="1.0" viewBox="0 0 512 512"><path d="M137.3 17.4c-19.6 6.4-29.2 26.2-22.2 45.3 2 5.2 4.4 8.1 25.2 29 12.6 12.7 24.2 23.7 25.8 24.3 5.5 2.3 8.3.3 31.7-23.4 26.3-26.5 27.7-28.7 27.7-42.6 0-7.3-.4-9.3-2.8-14.2-9.2-18.7-32.6-25.5-49.2-14.2-3.7 2.5-4 2.5-6.5 1-8.7-5.8-21.4-7.9-29.7-5.2zm15 20c1.8.7 4.8 3 6.7 5.1 7.7 8.1 11.8 8.1 21-.1 3.3-2.9 7.2-5.7 8.5-6 9.7-2.4 19.5 7.5 17 17.3-.4 1.8-7.3 9.5-18.6 20.8l-17.9 18L152.4 76c-9.1-9.1-17.2-17.7-18-19.2-.8-1.5-1.4-4.6-1.4-6.9 0-10.2 9.8-16.6 19.3-12.5zM321.2 17.4c-1.3.7-5 5.6-8.2 10.9-11.3 18.9-34.5 49.6-52.5 69.7-11.1 12.4-36.3 37.7-49.6 50-6.8 6.3-12.9 12.3-13.6 13.5-4.8 8.1 5.1 17.9 13.4 13.2 1.2-.7 9.9-8.4 19.5-17.3C265.1 125 297.4 88 320 54.3c11.6-17.2 16-25 16-28.2 0-7.5-8.3-12.4-14.8-8.7zM387.2 19.7c-.7.3-7.3 8.4-14.6 18.1-35.1 46.5-75.3 89.8-118.6 127.8-75.7 66.6-115.1 129.5-127.7 204.1-1.4 8.5-1.8 16.2-1.8 35.8 0 28.3 1.7 41.1 8.1 62.2 6.5 21.6 10.7 28.3 17.4 28.3 5 0 10-4.9 10-9.9 0-.9-1.5-5.5-3.4-10.2-4-9.8-7.8-23.5-10.3-36.9-1.4-7.5-1.8-14.8-1.7-34 0-21.2.3-26.1 2.2-36.5 12.8-68.1 51.8-128.7 121.4-188.8 41.5-35.7 86.3-84.4 122.9-133.1 9.5-12.8 10.4-14.3 10.4-18.4 0-3.6-.5-4.8-2.8-6.8-2.7-2.3-8-3.1-11.5-1.7z"/><path d="M450.8 20.2c-.9.7-5.8 6.9-10.9 13.8-23.9 32.3-48.8 61-81.4 93.6-13.2 13.2-31.2 30.3-40 38-84.2 73-126.4 148.2-130.1 231.6-1.4 30.2 4.8 66.2 15.1 88.4 3.9 8.5 6.8 10.9 12.3 10.1 7.2-1.2 7.7-2.5 9-28.3 1.3-23.2 3.3-38.3 7.1-53.1 12.7-49.4 41.2-82.8 84.1-98.6 16-5.9 17.9-6.1 49-3.2 39.7 3.7 53 4.1 60.8 2.1 8.5-2.1 14.6-5.9 19.2-11.7 5.5-7 7.4-13.5 7.5-25.1v-9.7l3.8-1.7c11.1-5 17.4-20.9 10.7-26.9-2.4-2.2-2.6-3.5-.4-3.5 2.9 0 7.2-3.3 9.3-7 2.9-5.2 2.6-10.6-.9-19.5-1.6-4.2-3-7.7-3-8 0-.2 4.2-2.7 9.3-5.4 13.2-7.2 14.2-8.4 14.2-17.9 0-11-2.2-14.5-14.5-22.7-11.1-7.4-20.6-16.9-24-23.9-4.6-9.7-3.9-21.8 4.6-73.3 2.4-14.9 4.4-28.7 4.4-30.6 0-5-4-8.7-9.4-8.7-2.3 0-4.9.6-5.8 1.2zm-13.7 63.5c-1.6 10.9-2.4 20.5-2.5 30.8-.1 16.9.9 20.8 8.3 32.2 6 9.3 19.8 22 28.9 26.7 1.7.9 3.2 2.1 3.2 2.5 0 .5-5.2 3.7-11.5 7.1-11.3 6-14.5 8.9-14.5 13.5 0 .8 1.6 5.5 3.5 10.2 3.5 8.6 3.8 11.3 1.4 11.3-2 0-7.8 4.9-9.4 8-2.4 4.6-1.9 12.7 1 17.9 3 5.1 2.7 5.5-5.2 7.1-6.6 1.4-10.7 5.7-10 10.4.3 1.7 1 6.7 1.7 11.1 1.5 9.4.5 14.8-3.6 18.9-5.6 5.5-10.4 5.7-56.7 1.6-27.7-2.4-35.1-2.8-40.9-2-16.8 2.4-43.6 14.2-59.9 26.5-10.4 7.7-25.6 23.5-32.5 33.5-11.6 17-20.4 36.8-25.9 58.4-2.7 11.1-3.3 12.4-3.8 9.6-1-4.8-.8-21.4.3-33.1 4.5-45.1 21.7-87.8 52.7-130.7 17.6-24.3 39.8-48 68.3-73.1 35.3-31.1 69-65.6 97.9-100.4 6.3-7.5 11.5-13.7 11.5-13.7.1 0-.9 7.1-2.3 15.7zM36.3 97.8c-25.1 9-27.2 43.2-3.5 54.9 8.1 4 18.3 4 26.4 0 10.7-5.3 16.3-14.4 16.3-26.7 0-8.5-2.1-14.2-7.4-20.3-7.2-8.1-21.3-11.7-31.8-7.9zm14.6 19.6c6.7 3.5 6.5 14.3-.4 17.4-5.1 2.3-10.7.7-13.1-3.9-4.7-9.1 4.4-18.2 13.5-13.5zM151.5 161.2c-6.8 3.8-44.9 40.7-58.6 56.8C31.6 289.5 7 369.5 22.5 446.5c4.5 22.3 13.4 45.4 18.6 48.1 5.2 2.7 11.5.8 13.7-4.1 1.8-3.9 1.6-4.7-3.4-17.2-15.9-39.7-17.7-87.9-4.9-132.3 15.2-52.9 52.6-107.9 104-152.7 12.6-11 15.5-14.4 15.5-18 0-7.5-8.2-12.6-14.5-9.1z"/><path d="M111.2 267.3c-5.1 2.9-15.6 19.5-22.1 35C70 348.3 68.2 410.8 84 479c2.7 11.5 3.8 13.8 7.1 15.5 5.5 2.9 11.7.8 13.9-4.5 1.2-2.8.9-4.9-1.9-17.8-7.2-33.5-9.5-52.8-9.4-81.7 0-24.2 2-41.5 6.8-59.5 4.7-17.2 12.5-34.6 20.1-44.5 1.7-2.3 3.7-5.2 4.3-6.3 4.4-8.2-5.4-17.5-13.7-12.9zM317.7 376c-10.1 2.6-19.8 10.5-23.9 19.8-1.6 3.5-2.2 6.8-2.2 13.2-.2 14 1.8 17 28.6 43.7 22.2 22.1 25 24.2 30.1 23 1.2-.4 12.8-11.3 25.8-24.4 21.6-21.8 23.8-24.3 25.9-29.8 1.8-4.9 2.1-7.4 1.8-14-.6-9.8-3.2-15.8-9.9-22.5-11.3-11.3-31.3-12.7-43.6-3-2.3 1.8-2.8 1.9-4.2.6-5.7-5.2-20.4-8.6-28.4-6.6zm11.3 20c2 .5 5.4 2.8 7.5 5.1 8.4 8.6 12.2 8.9 20.5 1.5 3.4-3 7.7-6 9.7-6.7 4.9-1.6 10.3.2 14.2 4.6 2.5 2.9 3.1 4.5 3.1 8.1 0 2.5-.6 5.7-1.4 7.2-.8 1.5-9 10.2-18.3 19.5L347.4 452l-17.6-17.8c-14.9-15-17.7-18.3-18.3-21.6-1.7-8.7 4.2-16.5 13-17.5.6 0 2.6.4 4.5.9zM446.3 377.8c-25.1 9-27.2 43.2-3.5 54.9 4.7 2.3 7 2.8 13.2 2.8 17.4 0 29.5-12.1 29.5-29.5 0-8.5-2.1-14.2-7.4-20.3-7.2-8.1-21.3-11.7-31.8-7.9zm14.6 19.6c4.7 2.5 6.3 8.3 3.7 13.5-3.5 6.6-13.7 6.6-17.2 0-4.7-9.1 4.4-18.2 13.5-13.5z"/></svg>