<svg xmlns="http://www.w3.org/2000/svg" version="1.0" viewBox="0 0 512 512"><path d="M394.5 84.2c-1.9 1.7-4.6 7.8-10.1 22.8-4.1 11.3-7.9 21.6-8.5 22.9-1 2.4-1.2 2.2-9-6.2-9.5-10.3-17.7-15.9-27.3-19-5.8-1.8-9.4-2.2-20.1-2.2-19.9.1-27.2 2.8-44.7 16.8-18 14.3-20.4 14.3-39-.5-12.5-10.1-19.2-13.5-30.2-15.5-10.5-1.9-26.3-1.1-34.7 1.7-12.7 4.3-18.2 9.1-42.2 36.5-24.9 28.4-42.1 44.9-70.7 67.6-14.4 11.5-38.1 29-49.3 36.4-8.6 5.7-10.6 10.8-6.8 17.1 1.6 2.6 3.5 3.7 9.8 5.8 11.4 3.8 19.7 9 28.8 18.1 9.3 9.3 15.2 17.5 29.5 41 23.8 39.3 38.5 56.4 61.6 72 19 12.8 51.8 24.8 73.9 27.1 5.6.6 6.3.4 9.2-2 3.9-3.3 5-7.4 2.9-11.3-2.3-4.6-3.5-5.2-17.2-7.9-22.6-4.4-42.1-12.2-58.9-23.2-9.7-6.4-27.7-24.7-36.2-36.7-3.8-5.5-11.7-17.7-17.3-27-13.1-21.6-18.8-30.1-25.7-38.2l-5.6-6.6 9.9.7c5.4.4 18.5.7 28.9.7 16.6.1 21 .4 34.8 3 34.2 6.4 65.2 15.7 93.6 28.4 20.3 9 23.7 9.9 35 9.3 7.3-.4 10.2-1.2 17.2-4.3 34-15.1 56.3-23 83.1-29.4 27-6.5 30.3-6.9 53.7-7 11.8 0 26-.3 31.5-.7l10-.7-4.8 5.4c-6.7 7.4-11.1 13.8-28 40.2-8 12.6-17.6 26.8-21.3 31.5-23.4 30-51.2 46.7-91.2 54.8-13.8 2.8-16.6 4.4-17.7 10-1.1 5.8 3.5 11.3 9.6 11.4 5.6 0 26-4.6 37.6-8.4 23.9-8.1 44.5-20.6 61.5-37.6 12.6-12.6 21.6-24.5 36.8-48.5 21.2-33.4 28.1-42.5 39-51.1 6-4.8 18.1-11.4 24.6-13.3 6.3-1.9 8.6-3.3 10.1-6.3 3.5-6.8 1.4-9.9-13.9-20.4-15.6-10.8-42.1-30.9-55.5-42.3-6.3-5.3-12.4-10.5-13.7-11.6-1.6-1.3-2.1-2.5-1.6-3.4.5-.7 10.9-5.1 23.2-9.7 12.2-4.5 23.1-9.2 24.1-10.2 1.1-1 2.2-3.8 2.5-6 .9-6.7-1.8-8.5-27.4-18.1l-22.1-8.3-5.8-15.6c-10.8-29.5-11.4-31-13.9-32.6-3.5-2.3-8.9-2-12 .6zm10.9 49.3c2.5 6.6 5.5 12.7 6.5 13.6 1.1.9 7.2 3.6 13.6 5.9 6.4 2.3 11.5 4.4 11.3 4.5-.2.1-5.5 2.1-11.8 4.5-6.4 2.3-12.4 5.2-13.6 6.5-1.1 1.2-3.8 6.9-5.9 12.6-2 5.7-4.1 10.8-4.5 11.2-.4.5-2.5-4-4.5-9.9-2.1-5.9-4.9-11.9-6.1-13.4-1.6-1.8-5.9-4-14-7-7.6-2.8-11.1-4.6-10.2-5.1.7-.4 5.8-2.4 11.3-4.4 5.5-2.1 11-4.7 12.2-5.8 1.2-1.1 4.1-7.2 6.5-13.8 2.3-6.5 4.4-11.7 4.5-11.5.1.1 2.3 5.6 4.7 12.1zM201.9 123c8.2 1.4 11.5 3.2 23.6 13 14.2 11.5 18.7 13.5 30 13.5 8.2 0 9.6-.3 15.5-3.2 3.6-1.8 10.9-6.8 16.2-11.2 13.7-11.1 17.3-12.5 32.3-12.5 11-.1 12.5.1 17.7 2.6 3.1 1.4 8.3 5.2 11.5 8.3 6.7 6.5 7.2 5.7-7.3 11-12.2 4.4-14.1 5.7-15.2 9.8-1.1 4.3-.4 7.3 2.2 9.8 1.2 1.2 12 5.8 23.9 10.3 11.9 4.4 22.1 8.5 22.6 9.1.5.5 4.6 10.9 9 23 8.6 23.4 10.5 26.5 16.1 26.5 3.8 0 7.3-1.6 8.8-4.1.7-1.1 2.8-6.3 4.7-11.5 1.9-5.2 3.7-9.9 4-10.4.3-.5 6.5 4 13.8 10 7.3 6 20.1 16.1 28.6 22.4 8.8 6.7 14.8 11.8 14 12-10.4 3.4-87.2 4.3-108.9 1.3-31.3-4.4-55-11.2-77.7-22.2-26.3-12.8-36.5-12.8-63.3 0-25.3 12.1-43.7 17.3-76.5 22.1-17.5 2.5-65.5 3-89.5.9-10.7-.9-19.8-2-20.3-2.4-.4-.4 5.9-5.7 14-11.8 35.7-26.5 65.7-54.2 92.8-85.3 16.5-18.9 23.4-25.9 28.4-28.5 6.5-3.3 17.7-4.3 29-2.5zm75.4 124.8c6.7 3.3 15.7 7.4 19.9 9.1 8.7 3.4 31.2 10.1 34.2 10.1 3.8 0 .1 1.6-14.3 6.4-8 2.6-21.2 7.7-29.5 11.3-8.3 3.6-17.6 7.6-20.6 8.9-8.4 3.6-15.5 3.3-25.5-1.2-22.1-9.9-27.4-12-45-17.9-10.4-3.5-18.3-6.6-17.5-6.9.8-.3 5.9-1.7 11.3-3.1 14.6-3.9 25.8-8 39.7-14.7 17.1-8.2 19.2-8.9 27.8-8.4 6.4.4 8.7 1.2 19.5 6.4z"/><path d="M253.5 410.8c-3.2 1.1-5.1 2.5-6.4 4.9-4.6 8.9 5.9 18.3 14.4 12.7 6.1-4 4.9-14.1-1.9-16.9-2-.8-3.7-1.5-3.8-1.4-.2.1-1.2.4-2.3.7z"/></svg>