<svg xmlns="http://www.w3.org/2000/svg" width="682.667" height="682.667" version="1.0" viewBox="0 0 512 512"><path d="M219.8 17c-.9.6-3.3 4.4-5.3 8.5-4.6 9.7-11.2 16.2-21.2 21.2-5.7 2.8-8 4.5-8.7 6.4-1.8 5.2-.2 7.5 10.9 14.9 11.1 7.5 14 10.4 19.5 20.2 5.9 10.4 12.2 10.6 17.5.6 4.8-9 8.7-13.1 19.9-20.7s12.8-9.8 11-15c-.7-1.9-3-3.6-8.5-6.4-10-4.9-16.8-11.7-21.5-21.2-1.9-4.1-4.4-8-5.4-8.5-2.3-1.3-6-1.2-8.2 0zm11.5 32.6 7.7 7.6-7.1 6.6c-4 3.7-7.5 6.7-7.9 6.7-.4 0-3.9-3-7.8-6.6l-7.2-6.7 7.2-7.5c4-4.1 7.3-7.5 7.3-7.6 0 0 3.5 3.3 7.8 7.5zM398.2 39c-16.5 3.6-33.6 11.6-42.3 19.7-6.4 6-9.3 12.8-9.3 21.8-.1 6.7.6 8.6 13.1 40l13.1 33 .7 18.5c1.2 36.3 5.5 74 11.8 104.5l3.1 15 .6 90 .5 90 2.6 5.6c3.2 6.8 8.3 12 15.2 15.6 4.5 2.3 6.4 2.7 13.7 2.7 6.9 0 9.4-.4 13.5-2.4 6.3-3.1 12.4-9.2 15.6-15.5l2.4-5 .5-90 .6-90 3.2-16c6.6-32.5 10.5-67.2 11.8-104.4l.7-19.5 12.9-32c14.4-35.8 15.3-39.4 12.2-49.2-3.8-12.4-21.3-24.5-44.4-30.9-13.4-3.8-38-4.5-51.8-1.5zm41.6 15.6c14.3 2.9 33.1 11.8 37.5 17.6 4.3 5.8 3.9 7.7-9.3 40.9L455.6 144h-8.3c-4.6 0-8.3-.2-8.3-.3 0-.2 1.4-7.1 3-15.2 1.7-8.1 3-15.9 3-17.2 0-3.4-4.2-7.3-8-7.3-5.9 0-7.2 2.7-11 22.3-4.5 23.3-5.2 23.2-10-.7-4-19.5-5.1-21.6-11.2-21.6-3.3 0-7.8 3.9-7.8 6.8 0 1 1.4 8.6 3 16.7 1.7 8.1 3 15.2 3 15.7 0 .4-3.7.8-8.3.8h-8.3L374 113.1c-13.1-33-13.5-34.4-9.4-40.6 3.7-5.6 22.9-14.8 37.4-17.9 9-2 28.3-2 37.8 0zm12.8 120.1c-.3 8.2-.9 19-1.3 24l-.6 9.3h-12.4c-11.8 0-12.5.1-14.8 2.5-3.3 3.2-3.3 7.8 0 11 2.3 2.4 3 2.5 14 2.5 6.3 0 11.5.3 11.5.7-.1 3-4.6 31.9-7.2 46.1l-3.1 17.2-17.6-.2-17.6-.3-2.7-14c-5.8-29.9-9.8-64.4-11.4-98.8l-.7-14.7h64.6l-.7 14.7zm-15.8 212.2c-.3 82-.3 83-2.4 85.7-3.9 5.2-7.1 6.9-13.3 6.9-4.7 0-6.4-.5-9.3-2.7-7.2-5.5-6.8-.4-6.8-91.2V304h32l-.2 82.9zM275.8 89c-.9.6-3.3 4.4-5.3 8.5-4.6 9.7-11.2 16.2-21.2 21.2-5.7 2.8-8 4.5-8.7 6.4-1.8 5.2-.2 7.5 10.9 14.9 11.1 7.5 14 10.4 19.5 20.2 5.9 10.4 12.2 10.6 17.5.6 4.8-9 8.7-13.1 19.9-20.7s12.8-9.8 11-15c-.7-1.9-3-3.6-8.5-6.4-10-4.9-16.8-11.7-21.5-21.2-1.9-4.1-4.4-8-5.4-8.5-2.3-1.3-6-1.2-8.2 0zm11.5 32.6 7.7 7.6-7.1 6.6c-4 3.7-7.5 6.7-7.9 6.7-.4 0-3.9-3-7.8-6.6l-7.2-6.7 7.2-7.5c4-4.1 7.3-7.5 7.3-7.6 0 0 3.5 3.3 7.8 7.5zM187.8 137c-.9.6-3.3 4.4-5.3 8.5-4.6 9.7-11.2 16.2-21.2 21.2-5.7 2.8-8 4.5-8.7 6.4-1.8 5.2-.2 7.5 10.9 14.9 11.1 7.5 14 10.4 19.5 20.2 5.9 10.4 12.2 10.6 17.5.6 4.8-9 8.7-13.1 19.9-20.7s12.8-9.8 11-15c-.7-1.9-3-3.6-8.5-6.4-10-4.9-16.8-11.7-21.5-21.2-1.9-4.1-4.4-8-5.4-8.5-2.3-1.3-6-1.2-8.2 0zm11.5 32.6 7.7 7.6-7.1 6.6c-4 3.7-7.5 6.7-7.9 6.7-.4 0-3.9-3-7.8-6.6l-7.2-6.7 7.2-7.5c4-4.1 7.3-7.5 7.3-7.6 0 0 3.5 3.3 7.8 7.5zM306.5 253.7c-4.6 2.4-6.6 4.5-8.6 8.8-1.7 3.7-1.9 7.4-1.9 46.7 0 37.9-.2 42.8-1.5 42.8-.9 0-2.7 1.1-4 2.5l-2.5 2.4v134.2l2.5 2.4 2.4 2.5h70.2l2.4-2.5 2.5-2.4V356.9l-2.5-2.4c-1.3-1.4-3.1-2.5-3.9-2.5-1.3 0-1.5-4.6-1.8-34.3l-.3-34.2-2.6-5.6c-3.2-6.8-8.8-13.2-14.5-16.5-6-3.5-24.1-9.4-28.8-9.4-2.3.1-5.4.8-7.1 1.7zm16.9 17.3c11.9 4 15 6.1 18 12.2l2.6 5.2V352h-32v-41.3c0-22.8.3-41.7.7-42 .9-1 1.1-1 10.7 2.3zM352 376v8h-48v-16h48v8zm0 64v40h-48v-80h48v40zM133 256.5c-.8.2-4.9.9-9 1.5-43.6 7.1-80.1 42.7-89.6 87.4-4.3 20.3-2.2 44.6 5.6 63.8l2.8 6.8h-11c-10.4 0-11 .1-13.5 2.6s-2.6 2.8-2 12.2c1 17.9 7.6 32.9 19.8 45.1 7.9 7.9 16.5 13.2 27.4 16.9l8 2.7h145l8-2.7c27.7-9.5 45.6-32.8 47.2-62 .6-9.4.5-9.7-2-12.2s-3.1-2.6-13.5-2.6h-11l2.8-6.8c9.7-23.8 10.4-52.3 1.9-77.3-3.4-10.2-11.7-25.2-18.7-33.9-17.8-22.3-43.6-36.8-72.7-41-6.4-.9-21.9-1.2-25.5-.5zm34.1 18.4c18.1 4.7 32 12.8 45.4 26.5 16.8 17.1 25.5 36.7 27.1 60.6 1.1 16.2-2.4 34.3-9.4 48l-2.8 5.5-9.7.3-9.7.3 4-6.2c8-12.3 11.5-25.1 11.5-41.9 0-22.5-7.6-41.1-23-56.5-15.4-15.4-34-23-56.5-23-17.4 0-29.7 3.6-43.3 12.5-31.7 20.6-44.4 59-31.5 94.7 1.6 4.6 4.7 11 6.9 14.3l3.9 6.1-9.7-.3-9.7-.3-2.8-5.5c-11.5-22.7-12.7-52.5-3.2-76.9 5-12.6 11.3-22 21.9-32.6 16-15.9 32.9-24.4 56-27.9 6.7-1 27.2.3 34.6 2.3zm-34.3 33.3c-1.4 1.8-13.5 18-27 36S81 376.7 80.6 376.3c-1.1-1.2-.6-14.7.9-21.8 4.5-21.7 21.9-40.7 43.5-47.6 3-1 6.6-1.8 7.9-1.8l2.3-.1-2.4 3.2zm34.9.5c4.1 1.6 6 2.9 5.6 3.7-1.1 1.8-73.4 93.9-75.4 96-1.7 1.8-1.8 1.8-4.2-1-1.4-1.6-3.5-4.7-4.7-7l-2.3-4.1 34.3-45.6c34.2-45.6 34.2-45.6 37.3-45 1.8.3 6 1.7 9.4 3zm31.4 26.9c1.6 2.8 2.9 5.7 2.9 6.3 0 .7-12.9 17.6-28.6 37.6L144.9 416h-16c-12.6 0-15.9-.3-15.3-1.3.5-.6 17.2-22.1 37.3-47.6l36.5-46.5 4.3 5c2.4 2.7 5.7 7.2 7.4 10zm7.5 45.5c-2.1 9.9-8.2 22.1-14.8 29.2l-5.3 5.8-10.6-.3-10.5-.3 21-26.8 21.1-26.8.3 5.9c.2 3.2-.4 9.2-1.2 13.3zM96.3 437c-.9 7.8 1.2 13.6 7.1 19.5 3.2 3.2 6.6 5.5 9.2 6.3 5.7 1.7 57.1 1.7 62.8 0 2.6-.8 6-3.1 9.2-6.3 5.9-5.9 8-11.7 7.1-19.5l-.6-5h32.4c17.9 0 32.5.3 32.5.7 0 .5-.7 3.7-1.5 7.2-4.4 18.6-20 34.2-38.6 38.6-9.5 2.2-134.3 2.2-143.8 0-20.6-4.9-35.1-20.7-39.6-43.3l-.7-3.2h65.1l-.6 5zm77.2-2.5c1.6 1.5 2.5 3.6 2.5 5.5s-.9 4-2.5 5.5l-2.4 2.5h-54.2l-2.4-2.5c-1.6-1.5-2.5-3.6-2.5-5.5s.9-4 2.5-5.5l2.4-2.5h54.2l2.4 2.5z"/></svg>