<svg xmlns="http://www.w3.org/2000/svg" version="1.0" viewBox="0 0 512 512"><path d="M412.9 2.8c-4.3 2.2-5.9 3.8-8.1 8.1l-2.8 5.3v27.2c0 16.2.4 28.7 1.1 31 1.3 4.8 7.7 11.8 12.6 13.9 2.1.9 7.1 2.6 11.1 3.7l7.2 2.1v32.2c.1 27.7.3 32.8 1.8 36.2 2 5 1.9 14.5-.3 25.6-4.7 22.8-14.1 41.4-27.5 54.4-2.8 2.7-5.8 6.2-6.6 7.7-1.8 3.5-1.8 10.1.1 13.8 1.7 3.3 18.1 17.5 23.3 20.2 6.7 3.4 16.6 1.4 21.9-4.3 3.1-3.4 9.4-17.5 13.3-29.4 6.4-20 10.4-42.6 11.9-66.4.7-11.3 1.3-14.4 3.2-18.1 2.3-4.4 2.4-5.3 2.7-31.8l.3-27.3 3.2.8c1.8.4 6.4.8 10.4.8 6.3 0 7.6-.3 11.4-3 7.1-5 8.3-8.7 8.7-25.5.3-13.6.2-14.6-1.8-16.8-2.8-3-8.2-3-11 0-1.8 2-2 3.5-2 14.8 0 11-.2 12.9-1.8 14.3-1 1-2.8 1.7-4 1.7-1.2 0-17.3-4.3-35.9-9.5-28.1-8-34.2-10-36-12.1-2.3-2.5-2.3-3-2.3-28.3 0-23.7.1-25.9 1.8-27.4s5.8-1.7 38.4-1.7c43 0 39.8-.9 39.8 11.7 0 9.8 2 13.3 7.5 13.3 5.7 0 7.5-3.4 7.5-14.5 0-8.2-.3-9.9-2.8-14.6-2.2-4.3-3.8-5.9-8.1-8.1L495.8 0h-77.6l-5.3 2.8zm44.3 97.8 5.9 1.7-.3 28.4-.3 28.5-2.4 1.9c-3.1 2.6-5.7 2.4-8.6-.6l-2.5-2.4v-29.6c0-22.1.3-29.5 1.2-29.5.6 0 3.8.7 7 1.6zm-.5 86.7c-1.5 23.3-7.4 50.7-14.8 69.1-4.8 12-6.3 14.6-8.8 14.6-1 0-4.9-2.5-8.7-5.6-11-8.9-10.7-7.4-3.3-15.1 16.2-16.8 26.9-40.5 30.4-67.1.6-4.7.9-5.2 3.2-5.2h2.6l-.6 9.3z"/><path d="M248 167.6c-13.5 3.5-40.9 19.5-64.3 37.6-22.9 17.7-168.1 134.5-170.9 137.5-4.9 5.1-9.7 14.4-11.3 21.7C.1 370.5 0 379.7.2 430.5l.3 59 2.8 5.7c3.2 6.4 8 11.1 14.6 14.2 3.7 1.6 7.1 2.1 17.1 2.4 11.6.4 12.7.2 15.3-1.8 3.7-2.9 3.8-8 .1-10.9-2.3-1.8-4.1-2.1-13.1-2.1-11.9 0-16-1.3-19.6-6.4-1.9-2.6-2.2-4.7-2.5-13.6l-.4-10.5L118.9 383c57.2-45.9 104.4-83.6 104.8-83.7.4-.2 1.6 2.3 2.5 5.5 4.4 15.1 18.2 24.6 35.8 24.6 20.6 0 31.5-6.7 64.7-39.5l17.1-17 .8 5.8c1.4 11.1-2.7 22.9-10.8 31.5-2.4 2.6-55.5 45.6-118 95.7L102.1 497H90.3c-12.6.1-14.5.7-16.1 5.1-1.1 2.8.1 6.6 2.6 8.5 1.4 1.1 17.9 1.3 84.5 1.4 91.9 0 91.6 0 105.3-6.5 4.8-2.4 15.1-9.9 33.5-24.6 32.7-26.2 32.9-26.4 32.9-30.5 0-3.7-3.8-7.4-7.5-7.4-1.5 0-12.5 8.2-30.9 23-15.7 12.6-31.2 24.3-34.4 25.9-9.9 5-12.9 5.2-75.6 4.9l-57.9-.3 71.3-57.2c39.2-31.5 71.7-57 72.2-56.7.4.3.8 1.3.8 2.2 0 3.6 5.8 13.8 10 17.5 11.9 10.8 32.7 12.6 50.2 4.3 6.9-3.3 19.6-13.5 33.1-26.5 5.9-5.7 11-10.1 11.5-9.7.4.4.7 4.9.6 9.9-.1 15.3-4.6 23.3-19.6 35.8-6 4.9-10.1 9.1-10.4 10.6-1.3 5.2 3.7 10.3 8.8 8.9 4.2-1.1 22.2-17 26.6-23.5 10-14.9 12.7-33.3 7.2-48.8-1.6-4.5-1.7-5.9-.7-7.2.6-.9 4.2-5 7.8-9.2 13.2-15.5 22.7-32.4 24.5-43.6.9-6.1-1.8-14.4-6-18.1-9.2-8.1-22.1-6.7-45 4.8-5.4 2.8-9.9 5-10 5-.2 0-.2-4.6-.2-10.3.1-8-.4-11.8-2.2-17.6l-2.3-7.4 3-4.1c5.7-7.6 14-22.1 16.1-28.1 4.2-11.8 1-24.9-7-29-15.8-8.2-46.3 5.3-91.9 40.4-7.4 5.6-14 10.5-14.6 10.7-.8.3-1.2-1.5-1.3-5.3-.1-3.2-.8-8.1-1.5-10.8l-1.3-5 4.2-5.5c15.3-20.3 20.4-35.8 15.5-46.5-2.2-4.9-4.8-7.3-9.8-9.1-4.9-1.7-11.3-1.7-18.3.2zm14.8 16.8c.9 7.9-6.4 20.8-23 40.1-11.4 13.2-35.9 37.2-45.3 44.4-12.2 9.2-26.6 11.5-36.9 5.9-5.2-2.9-8.4-9.1-8.8-16.9l-.3-5.7 24-19.2c42.4-34 73-52.4 86-51.7 3.6.2 4 .5 4.3 3.1zm97 27.8c2 2 1.3 9-1.4 14.8-5.6 12-23.2 33.7-44.6 54.6-16.3 16.1-27.8 25.8-34.1 28.8-9.8 4.7-22.7 5.2-30.4 1.2-6.3-3.2-9.8-9.8-10.4-19.4l-.4-5.1 19-15.3c21.9-17.7 35-27.7 48.5-36.9 25.5-17.5 49.1-27.4 53.8-22.7zM242.4 258c-.9 2.5-3.1 6.4-4.8 8.7-1.8 2.5-47 39.4-112 91.5-59.8 48-109.2 87.4-109.7 87.6-1.3.5-1.1-71.6.2-77.6 2.4-11.6 2.9-12.1 62.4-59.8 43.2-34.7 55.1-43.8 55.7-42.5.4.9 1.5 3.8 2.4 6.6 4 11.1 16.1 19.1 30.9 20.2 19 1.5 33.6-7 63.5-36.9l12.5-12.5.3 5.1c.2 3-.4 6.8-1.4 9.6zm163 40.2c3.3 9.3-12.5 32.1-44.3 63.8-28.9 28.9-37.7 34.5-53.6 34.4-14.9 0-20.8-5.6-23-21.5l-.6-4.6 23.3-18.5c30.9-24.4 33.4-26.3 47.6-35.6 21.1-13.8 37.8-21.5 45.7-21 3.3.3 4.1.7 4.9 3z"/></svg>